<svg version="1.2" xmlns="http://www.w3.org/2000/svg" viewBox="0 0 412 278" width="412" height="278"><style>.tcm-blue{fill:#6391d2}.white{fill:#fff}</style><path class="tcm-blue" d="m238.5 167.6l-26.2-14.9-26.1 14.9 26.1 14.7 24.4 13.8-92.3 52.1-92.4-52.1 24.5-13.8 26.2-14.7-26.2-14.9-26.2 14.9-50.6 28.5 144.7 81.7 144.7-81.7z"/><path class="white" d="m238.5 110.4l-26.1-14.7-26.2 14.7 26.2 14.8 24.3 13.8-24.4 13.7-26.1 14.9-41.8 23.5-41.7-23.5-26.2-14.9-24.5-13.7 24.5-13.8 26.1-14.8-26.1-14.7-26.2 14.7-50.6 28.6 50.6 28.6 26.2 14.7 67.9 38.3 67.9-38.3 26.2-14.7 50.6-28.6z"/><path fill-rule="evenodd" class="tcm-blue" d="m289.1 81.9l-50.6 28.5-26.1 14.8-68 38.4-67.9-38.4-26.2-14.8-50.6-28.5 144.7-81.7zm-76.7 13.8l24.4-13.8-92.4-52.1-92.3 52.1 24.4 13.8 26.1 14.8 41.8 23.6 41.8-23.6z"/><path class="white" d="m197.8 75.4l-42.2-24.3c-5-2.9-11.2 0.7-11.2 6.5v48.7c0 5.7 6.2 9.3 11.2 6.4l42.2-24.3c5-2.9 5-10.1 0-13z"/><path class="tcm-blue" d="m402.9 16.9q-0.6 0.6-2 0.6h-18.6q-0.8 0-1.1 0.3-0.3 0.4-0.3 1.1v57.8q0 1.4-0.7 2-0.7 0.6-2.1 0.6h-9.8q-1.4 0-2-0.6-0.6-0.6-0.6-2v-57.8q0-0.7-0.4-1.1-0.4-0.3-1.1-0.3h-18.7q-1.4 0-2-0.6-0.6-0.6-0.6-2v-8.9q0-1.4 0.6-2 0.6-0.6 2-0.6h55.4q1.4 0 2 0.6 0.6 0.6 0.6 2v8.9q0 1.4-0.6 2z"/><path class="tcm-blue" d="m398 156.5q1.2-1 2-1 0.9 0 1.8 1.2l4.7 6.8q0.7 1 0.7 1.6 0 0.6-0.3 1.1-0.4 0.6-1.1 1.2-5.9 4.9-13.1 7.5-7.3 2.7-15.2 2.7-11.1 0-20.1-5.1-9.1-5-14.3-13.9-5.2-8.9-5.2-19.9 0-11.3 5.3-20.3 5.2-9 14.4-14.1 9.1-5.2 20.6-5.2 8 0 15 2.7 7 2.7 12.8 7.4 0.5 0.5 0.9 1 0.3 0.5 0.3 0.9 0 0.8-0.8 1.9l-4.7 6.7q-1 1.3-2 1.3-0.8 0-1.9-0.9-4.4-3.2-9.4-5.1-5-1.8-10.4-1.8-6.8 0-12.4 3.2-5.6 3.2-8.8 8.9-3.2 5.8-3.2 13.2 0 7.1 3.2 12.8 3.2 5.7 8.8 8.9 5.5 3.3 12.4 3.3 11.2 0 20-7z"/><path class="tcm-blue" d="m351.1 272q0 1.4-0.7 2-0.6 0.6-2 0.6h-9.9q-1.4 0-2-0.6-0.6-0.6-0.6-2v-70.5q0-3.9 2.4-3.9 1 0 1.9 0.7 1 0.7 2.5 2.6l30.8 34.9 30.5-34.9q1.7-1.9 2.6-2.6 0.9-0.7 1.8-0.7 1.3 0 1.9 1 0.5 1 0.5 2.9v70.5q0 1.4-0.6 2-0.6 0.6-2 0.6h-9.8q-1.5 0-2.1-0.6-0.7-0.6-0.7-2v-40.9l-18.3 21.8q-1.5 1.7-2.3 2.3-0.8 0.6-1.7 0.6-0.7 0-1.6-0.6-0.9-0.6-2.3-2.3l-18.3-21.8z"/></svg>