<svg version="1.2" xmlns="http://www.w3.org/2000/svg" viewBox="0 0 738 278" width="738" height="278">
	<title>TitleCardMaker Logo</title>
	<style>
		.tcm-blue { fill: #6391d2 } 
		<!-- .s0 { fill: #4186d1 } -->
		.white { fill: #ffffff }
	</style>
	<g id="Layer 1">
		<g id="&lt;Group&gt;">
			<g id="&lt;Group&gt;">
				<g id="&lt;Group&gt;">
					<path id="&lt;Compound Path&gt;" class="tcm-blue" d="m238.5 167.6l-26.2-14.9-26.1 14.9 26.1 14.7 24.4 13.8-92.3 52.1-92.4-52.1 24.5-13.8 26.2-14.7-26.2-14.9-26.2 14.9-50.6 28.5 144.7 81.7 144.7-81.7z"/>
				</g>
				<g id="&lt;Group&gt;">
					<path id="&lt;Compound Path&gt;" class="white" d="m238.5 110.4l-26.1-14.7-26.2 14.7 26.2 14.8 24.3 13.8-24.4 13.7-26.1 14.9-41.8 23.5-41.7-23.5-26.2-14.9-24.5-13.7 24.5-13.8 26.1-14.8-26.1-14.7-26.2 14.7-50.6 28.6 50.6 28.6 26.2 14.7 67.9 38.3 67.9-38.3 26.2-14.7 50.6-28.6z"/>
				</g>
				<g id="&lt;Group&gt;">
					<path id="&lt;Compound Path&gt;" fill-rule="evenodd" class="tcm-blue" d="m289.1 81.9l-50.6 28.5-26.1 14.8-68 38.4-67.9-38.4-26.2-14.8-50.6-28.5 144.7-81.7zm-76.7 13.8l24.4-13.8-92.4-52.1-92.3 52.1 24.4 13.8 26.1 14.8 41.8 23.6 41.8-23.6z"/>
				</g>
			</g>
			<path id="&lt;Path&gt;" class="white" d="m197.8 75.4l-42.2-24.3c-5-2.9-11.2 0.7-11.2 6.5v48.7c0 5.7 6.2 9.3 11.2 6.4l42.2-24.3c5-2.9 5-10.1 0-13z"/>
			<g id="&lt;Group&gt;">
				<g id="&lt;Group&gt;">
					<path id="&lt;Compound Path&gt;" class="tcm-blue" d="m395.9 16.9q-0.6 0.6-2 0.6h-18.6q-0.8 0-1.1 0.3-0.3 0.4-0.3 1.1v57.8q0 1.4-0.7 2-0.7 0.6-2.1 0.6h-9.8q-1.4 0-2-0.6-0.6-0.6-0.6-2v-57.8q0-0.7-0.4-1.1-0.4-0.3-1.1-0.3h-18.7q-1.4 0-2-0.6-0.6-0.6-0.6-2v-8.9q0-1.4 0.6-2 0.6-0.6 2-0.6h55.4q1.4 0 2 0.6 0.6 0.6 0.6 2v8.9q0 1.4-0.6 2z"/>
					<path id="&lt;Compound Path&gt;" class="white" d="m430.1 78.7q-0.6 0.6-2 0.6h-9.9q-1.4 0-2-0.6-0.6-0.6-0.6-2v-70.7q0-1.4 0.6-2 0.6-0.6 2-0.6h9.9q1.4 0 2 0.6 0.7 0.6 0.7 2v70.7q0 1.4-0.7 2z"/>
					<path id="&lt;Compound Path&gt;" class="white" d="m509.8 16.9q-0.5 0.6-2 0.6h-18.6q-0.8 0-1.1 0.3-0.3 0.4-0.3 1.1v57.8q0 1.4-0.7 2-0.6 0.6-2 0.6h-9.9q-1.4 0-2-0.6-0.6-0.6-0.6-2v-57.8q0-0.7-0.4-1.1-0.3-0.3-1.1-0.3h-18.7q-1.4 0-2-0.6-0.6-0.6-0.6-2v-8.9q0-1.4 0.6-2 0.6-0.6 2-0.6h55.4q1.5 0 2 0.6 0.6 0.6 0.6 2v8.9q0 1.4-0.6 2z"/>
					<path id="&lt;Compound Path&gt;" class="white" d="m545 64.9q0.3 0.3 1.1 0.3h29.8q1.4 0 2 0.6 0.6 0.6 0.6 2v8.9q0 1.4-0.6 2-0.6 0.6-2 0.6h-43.8q-1.4 0-2-0.6-0.6-0.6-0.6-2v-70.7q0-1.4 0.6-2 0.6-0.6 2-0.6h9.9q1.4 0 2 0.6 0.7 0.6 0.7 2v57.8q0 0.8 0.3 1.1z"/>
					<path id="&lt;Compound Path&gt;" class="white" d="m647.5 65.8q0.6 0.6 0.6 2v8.9q0 1.4-0.6 2-0.7 0.6-2.1 0.6h-43.6q-1.4 0-2-0.6-0.6-0.6-0.6-2v-70.7q0-1.4 0.6-2 0.6-0.6 2-0.6h43.5q1.4 0 2.1 0.6 0.6 0.6 0.6 2v8.9q0 1.4-0.6 2-0.7 0.6-2.1 0.6h-29.5q-0.7 0-1.1 0.3-0.3 0.4-0.3 1.1v13.8q0 0.7 0.3 1.1 0.4 0.3 1.1 0.3h25.8q1.4 0 2.1 0.6 0.6 0.7 0.6 2.1v8.8q0 1.4-0.6 2-0.7 0.6-2.1 0.6h-25.8q-0.7 0-1.1 0.3-0.3 0.2-0.3 1.1v14.2q0 0.8 0.3 1.1 0.4 0.3 1.1 0.3h29.6q1.4 0 2.1 0.6z"/>
				</g>
				<g id="&lt;Group&gt;">
					<path id="&lt;Compound Path&gt;" class="tcm-blue" d="m396 156.5q1.2-1 2-1 0.9 0 1.8 1.2l4.7 6.8q0.7 1 0.7 1.6 0 0.6-0.3 1.1-0.4 0.6-1.1 1.2-5.9 4.9-13.1 7.5-7.3 2.7-15.2 2.7-11.1 0-20.1-5.1-9.1-5-14.3-13.9-5.2-8.9-5.2-19.9 0-11.3 5.3-20.3 5.2-9 14.4-14.1 9.1-5.2 20.6-5.2 8 0 15 2.7 7 2.7 12.8 7.4 0.5 0.5 0.9 1 0.3 0.5 0.3 0.9 0 0.8-0.8 1.9l-4.7 6.7q-1 1.3-2 1.3-0.8 0-1.9-0.9-4.4-3.2-9.4-5.1-5-1.8-10.4-1.8-6.8 0-12.4 3.2-5.6 3.2-8.8 8.9-3.2 5.8-3.2 13.2 0 7.1 3.2 12.8 3.2 5.7 8.8 8.9 5.5 3.3 12.4 3.3 11.2 0 20-7z"/>
					<path id="&lt;Compound Path&gt;" class="white" d="m435.4 172.9q-1 2.1-1.9 2.7-1 0.7-3 0.7h-9.6q-2.4 0-2.4-1.5 0-0.6 0.6-1.9l33.7-68.8q1.5-3.3 2.5-4.3 0.9-1.1 2.1-1.1 1.2 0 2.1 1.1 0.9 1 2.5 4.3l33.9 68.8q0.6 1.3 0.6 1.9 0 1.5-2.4 1.5h-10.3q-1.9 0-2.8-0.7-1-0.6-2-2.7l-21.9-46.2z"/>
					<path id="&lt;Compound Path&gt;" class="white" d="m528.1 175.7q-0.6 0.6-2 0.6h-9.9q-1.4 0-2-0.6-0.6-0.6-0.6-2v-70.7q0-1.4 0.6-2 0.6-0.6 2-0.6h23q16.3 0 24.4 6.1 8 6.2 8 18.5 0 7.4-3.6 12.4-3.7 5-10.2 7.7l17.6 27.8q0.8 1.4 0.8 2.1 0 1.3-2.6 1.3h-10.5q-2 0-3.1-0.6-1-0.6-2.2-2.6l-18.5-30.7q-0.7-1-0.7-1.7 0-1 2-1.2 6.8-0.7 11-4 4.2-3.2 4.2-9.2 0-6.4-4.4-9.4-4.4-2.9-12.8-2.9h-8.4q-0.8 0-1.1 0.2-0.3 0.3-0.3 1.2v58.3q0 1.4-0.7 2z"/>
					<path id="&lt;Compound Path&gt;" fill-rule="evenodd" class="white" d="m594.8 101q0.6-0.6 2-0.6h24.9q12.8 0 22.1 4.6 9.3 4.5 14.2 12.9 4.9 8.4 4.9 19.6 0 11.8-5.1 20.5-5.1 8.8-14.8 13.5-9.7 4.8-23.1 4.8h-23.1q-1.4 0-2-0.6-0.6-0.6-0.6-2v-70.7q0-1.4 0.6-2zm14.9 13.8q-0.3 0.4-0.3 1.1v44.9q0 0.7 0.3 1.1 0.4 0.3 1.1 0.3h9.1q8.7 0 14.8-2.9 6.2-3 9.3-8.4 3.1-5.4 3.1-12.9 0-7.1-3.1-12.4-3.1-5.4-9.2-8.2-6-2.9-14.4-2.9h-9.6q-0.7 0-1.1 0.3z"/>
				</g>
				<g id="&lt;Group&gt;">
					<path id="&lt;Compound Path&gt;" class="tcm-blue" d="m351.1 272q0 1.4-0.7 2-0.6 0.6-2 0.6h-9.9q-1.4 0-2-0.6-0.6-0.6-0.6-2v-70.5q0-3.9 2.4-3.9 1 0 1.9 0.7 1 0.7 2.5 2.6l30.8 34.9 30.5-34.9q1.7-1.9 2.6-2.6 0.9-0.7 1.8-0.7 1.3 0 1.9 1 0.5 1 0.5 2.9v70.5q0 1.4-0.6 2-0.6 0.6-2 0.6h-9.8q-1.5 0-2.1-0.6-0.7-0.6-0.7-2v-40.9l-18.3 21.8q-1.5 1.7-2.3 2.3-0.8 0.6-1.7 0.6-0.7 0-1.6-0.6-0.9-0.6-2.3-2.3l-18.3-21.8z"/>
					<path id="&lt;Compound Path&gt;" class="white" d="m444.9 271.2q-1 2.1-2 2.7-1 0.7-2.9 0.7h-9.7q-2.4 0-2.4-1.5 0-0.6 0.6-1.9l33.7-68.8q1.5-3.3 2.5-4.4 1-1 2.2-1 1.2 0 2 1 0.9 1.1 2.5 4.4l33.9 68.8q0.6 1.3 0.6 1.9 0 1.5-2.4 1.5h-10.3q-1.8 0-2.8-0.7-1-0.6-2-2.7l-21.9-46.2z"/>
					<path id="&lt;Compound Path&gt;" class="white" d="m537.5 274q-0.6 0.6-2 0.6h-9.9q-1.4 0-2-0.6-0.6-0.6-0.6-2v-70.7q0-1.4 0.6-2 0.6-0.6 2-0.6h9.9q1.4 0 2 0.6 0.7 0.6 0.7 2v70.7q0 1.4-0.7 2zm31.2-74.8q0.9-0.5 2.9-0.5h11.5q2.1 0 2.1 1.3 0 0.8-0.7 1.6l-27.1 34.2 28.1 35.7q0.7 1.1 0.7 1.8 0 1.3-2.3 1.3h-11.9q-1.9 0-3-0.6-1-0.5-2.2-2.1l-25.4-33.3q-0.9-1.3-0.9-2.3 0-1 1.1-2.4l24.9-32.4q1.2-1.7 2.2-2.3z"/>
					<path id="&lt;Compound Path&gt;" class="white" d="m652.2 261.1q0.7 0.6 0.7 2v8.9q0 1.4-0.7 2-0.6 0.6-2 0.6h-43.6q-1.4 0-2-0.6-0.6-0.6-0.6-2v-70.7q0-1.4 0.6-2 0.6-0.6 2-0.6h43.5q1.4 0 2 0.6 0.7 0.6 0.7 2v8.9q0 1.4-0.7 2-0.6 0.6-2 0.6h-29.5q-0.8 0-1.1 0.3-0.3 0.3-0.3 1.1v13.8q0 0.7 0.3 1.1 0.3 0.3 1.1 0.3h25.8q1.4 0 2 0.6 0.7 0.7 0.7 2.1v8.8q0 1.4-0.7 2-0.6 0.6-2 0.6h-25.8q-0.8 0-1.1 0.2-0.3 0.3-0.3 1.2v14.2q0 0.7 0.3 1.1 0.3 0.3 1.1 0.3h29.6q1.4 0 2 0.6z"/>
					<path id="&lt;Compound Path&gt;" class="white" d="m690.2 274q-0.7 0.6-2.1 0.6h-9.9q-1.4 0-2-0.6-0.6-0.6-0.5-2v-70.7q-0.1-1.4 0.5-2 0.6-0.6 2-0.6h23q16.4 0 24.4 6.1 8 6.1 8 18.5 0 7.4-3.6 12.4-3.6 5-10.1 7.7l17.5 27.8q0.9 1.4 0.9 2.1 0 1.3-2.6 1.3h-10.5q-2.1 0-3.1-0.6-1-0.6-2.2-2.6l-18.6-30.7q-0.6-1-0.6-1.7 0-1.1 1.9-1.2 6.9-0.7 11-4 4.2-3.2 4.2-9.2 0-6.4-4.4-9.4-4.4-2.9-12.7-2.9h-8.5q-0.7 0-1 0.2-0.4 0.3-0.4 1.2v58.3q0 1.4-0.6 2z"/>
				</g>
			</g>
		</g>
	</g>
</svg>