<svg version="1.2" xmlns="http://www.w3.org/2000/svg" viewBox="0 0 291 278" width="291" height="278">
	<title>TitleCardMaker Logo</title>
	<style>
		.tcm-blue { fill: #6391d2 } 
		<!-- .s0 { fill: #4186d1 } -->
		.white { fill: #ffffff }
	</style>
	<g id="Layer 1">
		<g id="&lt;Group&gt;">
			<g id="&lt;Group&gt;">
				<g id="&lt;Group&gt;">
					<path id="&lt;Compound Path&gt;" class="tcm-blue" d="m238.5 167.6l-26.2-14.9-26.1 14.9 26.1 14.7 24.4 13.8-92.3 52.1-92.4-52.1 24.5-13.8 26.2-14.7-26.2-14.9-26.2 14.9-50.6 28.5 144.7 81.7 144.7-81.7z"/>
				</g>
				<g id="&lt;Group&gt;">
					<path id="&lt;Compound Path&gt;" class="white" d="m238.5 110.4l-26.1-14.7-26.2 14.7 26.2 14.8 24.3 13.8-24.4 13.7-26.1 14.9-41.8 23.5-41.7-23.5-26.2-14.9-24.5-13.7 24.5-13.8 26.1-14.8-26.1-14.7-26.2 14.7-50.6 28.6 50.6 28.6 26.2 14.7 67.9 38.3 67.9-38.3 26.2-14.7 50.6-28.6z"/>
				</g>
				<g id="&lt;Group&gt;">
					<path id="&lt;Compound Path&gt;" fill-rule="evenodd" class="tcm-blue" d="m289.1 81.9l-50.6 28.5-26.1 14.8-68 38.4-67.9-38.4-26.2-14.8-50.6-28.5 144.7-81.7zm-76.7 13.8l24.4-13.8-92.4-52.1-92.3 52.1 24.4 13.8 26.1 14.8 41.8 23.6 41.8-23.6z"/>
				</g>
			</g>
			<path id="&lt;Path&gt;" class="white" d="m197.8 75.4l-42.2-24.3c-5-2.9-11.2 0.7-11.2 6.5v48.7c0 5.7 6.2 9.3 11.2 6.4l42.2-24.3c5-2.9 5-10.1 0-13z"/>
		</g>
	</g>
</svg>